<svg id="Capa_1" enable-background="new 0 0 512 512" height="512" viewBox="0 0 512 512" width="512" xmlns="http://www.w3.org/2000/svg"><g><path d="m508.156 399.006v54.568c0 5.661-4.589 10.25-10.25 10.25h-64.426l-81.219-148.726 11.582-21.212 14.74 14.74c.798.798 2.092.798 2.89 0l6.622-6.622.738-.738c.798-.798 2.092-.798 2.89 0l15.56 15.56c.798.798 2.092.798 2.89 0l15.56-15.56c.798-.798 2.092-.798 2.89 0l7.36 7.36c.798.798 2.092.798 2.89 0l14.74-14.74 52.034 95.296c1.647 3.013 2.509 6.391 2.509 9.824z" fill="#80e29d"/><path d="m476.452 463.824h-42.972l-81.219-148.726 11.582-21.212 14.74 14.74c.799.8 2.091.8 2.89 0l6.622-6.622z" fill="#78d090"/><path d="m78.52 463.824h-64.426c-5.661 0-10.25-4.589-10.25-10.25v-12.542c0-3.433.862-6.811 2.508-9.825l52.034-95.296 14.74 14.74c.798.798 2.092.798 2.891 0l7.36-7.36c.798-.798 2.092-.798 2.891 0l9.758 9.758 5.802 5.802c.798.798 2.092.798 2.891 0l15.56-15.56c.798-.798 2.092-.798 2.891 0l7.36 7.36c.798.798 2.092.798 2.891 0l14.74-14.74z" fill="#dd5790"/><path d="m78.52 463.824h-42.972l60.476-110.774 5.802 5.802c.799.8 2.091.8 2.891 0l15.56-15.56c.799-.799 2.091-.799 2.891 0l7.36 7.36c.799.8 2.091.8 2.891 0l14.74-14.74z" fill="#da387d"/><path d="m428.629 301.269 7.351 7.351c.801.801 2.099.801 2.899 0l14.737-14.737c-10.951-20.057-28.07-51.413-37.694-69.04-3.109-5.694-11.282-5.687-14.391.007l-37.69 69.033 14.737 14.737c.801.801 2.099.801 2.899 0l7.351-7.351c.801-.801 2.099-.801 2.899 0l15.551 15.551c.801.801 2.099.801 2.899 0l15.551-15.551c.802-.8 2.1-.8 2.901 0z" fill="#d8e2f1"/><path d="m388.096 302.002-14.344-26.272-9.911 18.153 14.737 14.737c.801.801 2.099.801 2.899 0z" fill="#b9cbea"/><path d="m123.171 343.295 7.351 7.351c.801.801 2.099.801 2.899 0l14.737-14.737c-10.951-20.057-28.07-51.413-37.694-69.04-3.109-5.694-11.282-5.687-14.391.007l-37.69 69.033 14.737 14.737c.801.801 2.099.801 2.899 0l7.351-7.351c.801-.801 2.099-.801 2.899 0l15.551 15.551c.801.801 2.099.801 2.899 0l15.551-15.551c.803-.8 2.101-.8 2.901 0z" fill="#d8e2f1"/><path d="m104.721 358.847 15.551-15.551c.801-.801 2.099-.801 2.899 0l7.351 7.351c.801.801 2.099.801 2.899 0l14.737-14.737c-6.02-11.027-13.905-25.468-21.384-39.167l-30.744 56.312 5.792 5.792c.8.8 2.098.8 2.899 0z" fill="#b9cbea"/><g><path d="m256 71.239h76.557c4.933 0 7.858-5.516 5.092-9.599l-12.686-18.727c-1.411-2.083-1.411-4.816 0-6.899l12.686-18.727c2.767-4.084-.159-9.599-5.092-9.599h-76.557z" fill="#dd5790"/><g><path d="m256 149.288c-4.246 0-7.688-3.442-7.688-7.688v-133.912c0-4.246 3.442-7.688 7.688-7.688s7.688 3.442 7.688 7.688v133.912c0 4.246-3.442 7.688-7.688 7.688z" fill="#5766cb"/></g></g><path d="m433.48 463.824h-354.96c-7.782 0-12.726-8.332-8.997-15.162l141.591-259.329 14.74 14.74c.798.798 2.092.798 2.891 0l7.36-7.36c.798-.798 2.092-.798 2.891 0l15.56 15.56c.798.798 2.092.798 2.891 0l15.56-15.56c.798-.798 2.092-.798 2.891 0l.718.718 6.642 6.642c.798.798 2.092.798 2.891 0l14.74-14.74 141.59 259.329c3.727 6.83-1.217 15.162-8.999 15.162z" fill="#5766cb"/><path d="m433.48 463.824h-11.426s-91.627-167.817-145.441-266.394l6.642 6.642c.798.798 2.092.798 2.891 0l14.74-14.74 141.59 259.329c3.73 6.831-1.214 15.163-8.996 15.163z" fill="#3342aa"/><path d="m275.9 196.717 7.351 7.351c.801.801 2.099.801 2.899 0l14.737-14.737c-10.951-20.057-28.07-51.413-37.694-69.04-3.109-5.694-11.282-5.687-14.391.007l-37.69 69.033 14.737 14.737c.801.801 2.099.801 2.899 0l7.351-7.351c.801-.801 2.099-.801 2.899 0l15.551 15.551c.801.801 2.099.801 2.899 0l15.551-15.551c.802-.801 2.1-.801 2.901 0z" fill="#d8e2f1"/><path d="m248.803 120.298-7.153 13.101c5.739 10.512 18.602 34.071 34.955 64.022l6.647 6.647c.801.801 2.099.801 2.899 0l14.737-14.737c-10.951-20.057-28.07-51.413-37.694-69.04-3.109-5.694-11.282-5.688-14.391.007z" fill="#b9cbea"/><path d="m252.847 255.437-56.862 68.412c-2.22 2.671-.321 6.721 3.153 6.721h15.419c2.763 0 4.735 2.678 3.915 5.317l-50.594 162.821c-2.05 6.597 2.88 13.292 9.789 13.292h156.667c6.908 0 11.839-6.695 9.789-13.292l-50.594-162.821c-.82-2.639 1.152-5.317 3.915-5.317h15.419c3.474 0 5.374-4.049 3.153-6.721l-56.862-68.412c-1.64-1.972-4.668-1.972-6.307 0z" fill="#ffe07d"/></g></svg>