<svg width="600" height="600" viewBox="0 0 600 600" fill="none" xmlns="http://www.w3.org/2000/svg">
<g clip-path="url(#clip0)">
<path d="M429 428H413V460H269V476H413V500C413 513.254 402.254 524 389 524H213C204.426 523.988 196.504 519.418 192.199 512L178.344 520C185.516 532.355 198.715 539.973 213 540H389C411.082 539.973 428.973 522.082 429 500V428Z" fill="#0767F8"/>
<path d="M293 492H309V508H293V492Z" fill="#0767F8"/>
<path d="M341 276V260H316.594C312.605 208.949 272.051 168.395 221 164.406V140H205V164.406C199.609 164.82 194.262 165.656 189 166.902V124H317V108H189V100C189 86.7461 199.746 76 213 76H389C394.844 76 400.488 78.1328 404.871 82L415.457 70C408.152 63.5508 398.742 59.9961 389 60H213C190.918 60.0273 173.027 77.918 173 100V172C136.977 187.09 112.426 221.062 109.406 260H85V276H109.426C113.199 327.148 153.852 367.828 205 371.633V396H221V371.633C272.148 367.828 312.801 327.148 316.574 276H341ZM205 340V355.633C193.84 354.629 182.98 351.492 173 346.398V332C173 309.91 190.91 292 213 292C235.09 292 253 309.91 253 332V346.398C243.023 351.5 232.16 354.641 221 355.656V340H205ZM189 252C189 238.746 199.746 228 213 228C226.254 228 237 238.746 237 252C237 265.254 226.254 276 213 276C199.746 276 189 265.254 189 252ZM271.664 333.602C270.801 334.398 269.879 335.039 269 335.777V332C268.98 311.102 257.324 291.953 238.77 282.336C251.621 271.512 256.336 253.809 250.574 238.027C244.812 222.242 229.801 211.742 213 211.742C196.199 211.742 181.188 222.242 175.426 238.027C169.664 253.809 174.379 271.512 187.23 282.336C168.676 291.953 157.02 311.102 157 332V335.816C156.113 335.09 155.191 334.406 154.336 333.641C137.758 318.773 127.426 298.18 125.426 276H141V260H125.406C129.316 217.766 162.766 184.316 205 180.406V196H221V180.406C263.234 184.316 296.684 217.766 300.594 260H285V276H300.574C298.574 298.18 288.242 318.773 271.664 333.641V333.602Z" fill="#0767F8"/>
<path d="M517 204C521.418 204 525 200.418 525 196V100C525 95.582 521.418 92 517 92H341C336.582 92 333 95.582 333 100V196C333 200.418 336.582 204 341 204H517ZM349 108H509V188H349V108Z" fill="#0767F8"/>
<path d="M365 124H397V140H365V124Z" fill="#0767F8"/>
<path d="M413 124H493V140H413V124Z" fill="#0767F8"/>
<path d="M365 156H493V172H365V156Z" fill="#0767F8"/>
<path d="M515.586 220C509.391 220.012 503.414 222.285 498.785 226.398L429 287.922V220H413V300H415.312L369.801 340.16C340.191 341.855 317.035 366.34 317 396V410.113C317.031 418.051 312.543 425.32 305.426 428.84C302.102 430.496 300.355 434.223 301.207 437.836C302.059 441.449 305.285 444.004 309 444H365C394.66 443.965 419.145 420.809 420.84 391.199L534.648 262.223C541.254 254.73 542.859 244.062 538.746 234.957C534.637 225.852 525.574 220 515.586 220V220ZM365 428H328.414C331.434 422.523 333.012 416.367 333 410.113V396C333.027 375.16 349.027 357.82 369.801 356.129L404.871 391.199C403.184 411.973 385.84 427.977 365 428ZM522.648 251.641L412.641 376.32L384.68 348.367L509.359 238.352C513.09 235.078 518.719 235.262 522.23 238.77C525.738 242.281 525.922 247.91 522.648 251.641Z" fill="#0767F8"/>
<path d="M69 500H245C249.418 500 253 496.418 253 492V428C253 423.582 249.418 420 245 420H189V380H173V420H69C64.582 420 61 423.582 61 428V492C61 496.418 64.582 500 69 500ZM77 436H237V484H77V436Z" fill="#0767F8"/>
<path d="M93 452H133V468H93V452Z" fill="#0767F8"/>
<path d="M149 452H221V468H149V452Z" fill="#0767F8"/>
<path d="M69 172H149C153.418 172 157 168.418 157 164V100C157 95.582 153.418 92 149 92H69C64.582 92 61 95.582 61 100V164C61 168.418 64.582 172 69 172ZM77 108H141V156H77V108Z" fill="#0767F8"/>
<path d="M93 124H125V140H93V124Z" fill="#0767F8"/>
</g>
<defs>
<clipPath id="clip0">
<rect x="60" y="60" width="480" height="480" fill="white"/>
</clipPath>
</defs>
</svg>
