<svg width="334" height="48" viewBox="0 0 334 48" fill="none" xmlns="http://www.w3.org/2000/svg">
<g clip-path="url(#clip0)">
<path d="M331.1 4.8C332.094 4.8 332.9 3.99411 332.9 3C332.9 2.00588 332.094 1.2 331.1 1.2C330.106 1.2 329.3 2.00588 329.3 3C329.3 3.99411 330.106 4.8 331.1 4.8Z" stroke="#ACACAC" stroke-width="0.5" stroke-miterlimit="10"/>
<path d="M327.3 2.8C327.3 2.8 285 1.8 263.3 40.8" stroke="#ACACAC" stroke-width="0.5" stroke-miterlimit="10"/>
<path d="M261.1 45.8C262.094 45.8 262.9 44.9941 262.9 44C262.9 43.0059 262.094 42.2 261.1 42.2C260.106 42.2 259.3 43.0059 259.3 44C259.3 44.9941 260.106 45.8 261.1 45.8Z" stroke="#ACACAC" stroke-width="0.5" stroke-miterlimit="10"/>
<path d="M2.09999 4.8C3.0941 4.8 3.89999 3.99411 3.89999 3C3.89999 2.00588 3.0941 1.2 2.09999 1.2C1.10588 1.2 0.299988 2.00588 0.299988 3C0.299988 3.99411 1.10588 4.8 2.09999 4.8Z" stroke="#ACACAC" stroke-width="0.5" stroke-miterlimit="10"/>
<path d="M6 2.8C6 2.8 48.3 1.8 70 40.8" stroke="#ACACAC" stroke-width="0.5" stroke-miterlimit="10"/>
<path d="M72.1 45.8C73.0941 45.8 73.9 44.9941 73.9 44C73.9 43.0059 73.0941 42.2 72.1 42.2C71.1059 42.2 70.3 43.0059 70.3 44C70.3 44.9941 71.1059 45.8 72.1 45.8Z" stroke="#ACACAC" stroke-width="0.5" stroke-miterlimit="10"/>
<path d="M168 4.8C168.994 4.8 169.8 3.99411 169.8 3C169.8 2.00588 168.994 1.2 168 1.2C167.006 1.2 166.2 2.00588 166.2 3C166.2 3.99411 167.006 4.8 168 4.8Z" stroke="#ACACAC" stroke-width="0.5" stroke-miterlimit="10"/>
<path d="M168 6.7V40.3" stroke="#ACACAC" stroke-width="0.5" stroke-miterlimit="10"/>
<path d="M168 45.8C168.994 45.8 169.8 44.9941 169.8 44C169.8 43.0059 168.994 42.2 168 42.2C167.006 42.2 166.2 43.0059 166.2 44C166.2 44.9941 167.006 45.8 168 45.8Z" stroke="#ACACAC" stroke-width="0.5" stroke-miterlimit="10"/>
</g>
<defs>
<clipPath id="clip0">
<rect width="333.1" height="47.3" fill="white"/>
</clipPath>
</defs>
</svg>
