<svg width="600" height="600" viewBox="0 0 600 600" fill="none" xmlns="http://www.w3.org/2000/svg">
<g clip-path="url(#clip0)">
<path d="M538.718 198.694C537.04 195.834 533.937 194.062 530.628 194.062L376.905 195.019L366.761 175.791C365.13 172.706 361.952 170.794 358.463 170.794C356.946 170.794 355.435 171.169 354.096 171.881C351.874 173.044 350.251 175.003 349.51 177.403C348.77 179.784 349.004 182.325 350.167 184.537L362.973 208.8C364.604 211.884 367.782 213.806 371.27 213.806L514.465 212.916L450.283 326.006C448.952 328.359 448.699 331.172 449.589 333.721L498.528 474.093L421.303 447.02C421.669 443.409 421.877 439.574 421.877 435.468V282.463C421.877 262.698 405.797 246.618 386.031 246.618C378.869 246.618 372.198 248.737 366.593 252.368C361.448 238.867 348.374 229.246 333.089 229.246C325.928 229.246 319.256 231.365 313.652 234.997C308.508 221.496 295.433 211.875 280.148 211.875C262.157 211.875 247.223 225.201 244.687 242.499C239.512 239.596 233.551 237.932 227.206 237.932C207.441 237.932 191.36 254.012 191.36 273.777V329.921C190.414 330.693 189.5 331.515 188.624 332.391C181.855 339.159 178.124 348.159 178.124 357.741V448.309L107.164 473.888L156.036 333.722C156.973 331.041 156.654 328.125 155.164 325.716L86.1647 213.759L228.732 213.806C232.22 213.806 235.398 211.884 237.029 208.8L300.002 89.4656L310.802 109.922C312.424 113.006 315.602 114.928 319.1 114.928C320.608 114.928 322.118 114.553 323.468 113.841C325.68 112.669 327.312 110.709 328.043 108.319C328.784 105.928 328.55 103.387 327.378 101.175L308.288 64.9969C306.667 61.9125 303.488 60 300.001 60C296.513 60 293.335 61.9125 291.713 64.9969L223.078 195.047L69.3741 195C65.9803 195 62.8397 196.837 61.1897 199.8C59.5303 202.762 59.6147 206.4 61.396 209.297L136.866 331.753L82.9875 486.291C81.8063 489.684 82.6875 493.509 85.2469 496.031C87.0094 497.784 89.3532 498.75 91.8375 498.75C92.925 498.75 93.9938 498.563 95.0157 498.197L182.633 466.65C182.747 466.898 182.846 467.152 182.963 467.399C185.77 473.295 189.695 478.497 194.643 482.93C196.301 499.544 197.979 518.567 197.979 527.52V530.625C197.979 535.802 202.177 540 207.354 540H383.386C388.328 540 392.421 536.165 392.741 531.233L395.046 495.856C401.554 491.803 411.713 483.001 417.485 465.55L510.689 498.225C514.008 499.388 517.928 498.487 520.411 496.013C522.942 493.482 523.814 489.666 522.642 486.292L468.689 331.557L538.787 208.07C540.426 205.162 540.406 201.572 538.718 198.694V198.694ZM315.994 265.092C315.994 255.666 323.663 247.997 333.09 247.997C342.517 247.997 350.186 255.666 350.186 265.092V331.268C350.186 340.695 342.517 348.364 333.09 348.364C323.663 348.364 315.994 340.694 315.994 331.268V265.092ZM263.052 247.72C263.052 238.294 270.721 230.625 280.148 230.625C289.575 230.625 297.244 238.294 297.244 247.72V323.46C293.876 322.43 290.338 321.892 286.717 321.89H263.053V247.72H263.052ZM210.111 273.777C210.111 264.351 217.779 256.682 227.207 256.682C236.633 256.682 244.303 264.351 244.303 273.777V321.89H213.975C212.675 321.891 211.386 321.967 210.111 322.103V273.777ZM403.127 435.469C403.127 472.175 384.625 480.451 382.983 481.114C379.247 482.241 376.929 485.469 376.675 489.374L374.6 521.25H349.079V499.884C349.079 494.708 344.879 490.509 339.704 490.509C334.538 490.509 330.329 494.708 330.329 499.884V521.25H296.138V490.509C296.138 485.333 291.938 481.134 286.763 481.134C281.598 481.134 277.388 485.333 277.388 490.509V521.25H216.564C216.222 513.555 215.384 503.141 214.418 492.675C217.59 492.056 220.298 489.82 221.447 486.713C223.228 481.875 220.744 476.475 215.906 474.684C215.906 474.684 215.906 474.684 215.897 474.674C215.841 474.655 210.422 472.471 205.603 467.494C201.891 463.594 196.949 457.031 196.875 445.088V357.741C196.894 348.328 204.563 340.659 213.975 340.641H286.717C296.12 340.66 303.789 348.328 303.807 357.741C303.788 367.144 296.12 374.813 286.717 374.83H247.06C244.595 374.83 242.176 375.833 240.432 377.578C238.688 379.321 237.685 381.74 237.685 384.205V416.193C237.685 419.053 238.97 421.724 241.201 423.516C243.395 425.269 246.367 425.953 249.113 425.344C249.282 425.306 255.551 424.012 263.201 424.012C272.426 424.012 281.018 426.056 286.323 429.627C289.698 431.869 292.117 434.569 293.935 438.13C296.157 442.518 297.235 447.862 297.245 454.471C297.245 459.638 301.454 463.837 306.62 463.837C311.785 463.837 315.995 459.638 315.995 454.471C315.995 444.983 314.204 436.631 310.66 429.647C308.222 424.79 304.857 420.533 300.667 416.991C296.982 413.869 292.735 411.366 288.067 409.547C280.754 406.688 272.588 405.291 263.1 405.272C260.906 405.272 258.666 405.347 256.434 405.506V393.58H286.716C296.288 393.58 305.288 389.85 312.056 383.081C317.016 378.122 320.336 371.962 321.761 365.26C325.325 366.454 329.129 367.114 333.088 367.114C345.839 367.114 357.048 360.416 363.404 350.361C369.579 355.4 377.456 358.429 386.03 358.429C392.216 358.429 398.041 356.853 403.126 354.082V435.469H403.127ZM403.127 322.583C403.127 332.009 395.457 339.678 386.031 339.678C376.604 339.678 368.934 332.008 368.934 322.583V282.463C368.934 273.037 376.604 265.368 386.031 265.368C395.457 265.368 403.127 273.037 403.127 282.463V322.583Z" fill="#0767F8"/>
<path d="M338.774 152.231C343.952 152.231 348.149 148.034 348.149 142.856C348.149 137.679 343.952 133.481 338.774 133.481C333.596 133.481 329.399 137.679 329.399 142.856C329.399 148.034 333.596 152.231 338.774 152.231Z" fill="#0767F8"/>
</g>
<defs>
<clipPath id="clip0">
<rect x="60" y="60" width="480" height="480" fill="white"/>
</clipPath>
</defs>
</svg>
