<svg width="600" height="600" viewBox="0 0 600 600" fill="none" xmlns="http://www.w3.org/2000/svg">
<g clip-path="url(#clip0)">
<path d="M455.892 243.321C452.23 239.661 446.293 239.661 442.633 243.321C438.972 246.983 438.972 252.919 442.633 256.58C442.777 256.724 442.927 256.871 443.072 257.006C444.882 258.7 447.183 259.539 449.48 259.539C451.981 259.539 454.479 258.542 456.324 256.572C459.864 252.795 459.67 246.861 455.892 243.321Z" fill="#0767F8"/>
<path d="M436.844 227.923C431.478 224.279 425.969 221.029 420.469 218.261C389.357 202.605 356.389 199.463 325.125 209.172C320.181 210.708 317.416 215.961 318.952 220.905C320.488 225.851 325.739 228.612 330.686 227.078C357.221 218.836 385.352 221.579 412.039 235.008C416.746 237.379 421.682 240.295 426.314 243.436C427.927 244.531 429.758 245.057 431.57 245.057C434.572 245.057 437.522 243.618 439.335 240.946C442.244 236.663 441.128 230.832 436.844 227.923Z" fill="#0767F8"/>
<path d="M522.135 349.245C518.291 341.182 511.927 327.831 511.812 323.414C522.775 296.392 518.776 266.488 500.515 239.135C472.435 197.067 414.882 166.532 363.669 166.532C336.598 166.532 310.163 172.988 286.381 185.311C279.558 147.927 246.772 119.492 207.448 119.492C163.192 119.492 127.188 155.495 127.188 199.75C127.188 227.906 141.538 253.506 165.57 268.229C172.498 272.474 174.065 276.144 174.622 282.156V314.165V337.014C174.622 347.482 183.136 355.999 193.602 355.999H196.789C201.939 397.038 221.801 434.299 253.329 461.718C253.626 462.644 254.493 466.986 250.767 479.939C247.866 490.031 243.413 501.24 239.486 511.131C236.857 517.749 234.586 523.464 233.214 527.786C232.309 530.635 232.817 533.746 234.582 536.16C236.349 538.573 239.159 540 242.149 540H375.972C380.369 540 386.408 538.031 390.21 528.652C391.864 524.57 392.944 519.659 394.089 514.459C395.203 509.393 397.815 497.527 400.411 496.093C400.413 496.093 400.565 496.068 400.932 496.124C401.413 496.201 401.899 496.238 402.387 496.238C416.401 496.238 427.853 496.873 437.956 497.433C467.59 499.077 485.477 500.07 501.168 477.469C509.148 465.973 508.243 449.208 507.286 431.459C506.793 422.31 506.284 412.868 507.188 405.018C508.824 403.407 512.92 400.594 515.489 398.831C524.327 392.761 532.673 387.03 532.673 378.316C532.676 371.692 528.67 362.954 522.135 349.245ZM175.366 252.239C156.94 240.952 145.939 221.33 145.939 199.749C145.939 165.832 173.533 138.241 207.448 138.241C241.365 138.241 268.958 165.833 268.958 199.749C268.958 221.33 257.958 240.953 239.531 252.241C230.773 257.608 225.568 263.868 223.098 272.326L207.446 272.32L191.801 272.326C189.329 263.869 184.125 257.608 175.366 252.239ZM221.525 291.078V304.789H193.374V291.078H221.525V291.078ZM193.604 337.248C193.499 337.248 193.374 337.118 193.374 337.013V323.539H221.525V337.013C221.525 337.119 221.398 337.248 221.292 337.248H193.604ZM504.878 383.372C496.809 388.915 489.839 393.7 488.812 400.941C487.4 410.875 487.992 421.852 488.564 432.466C489.275 445.635 490.079 460.562 485.767 466.775C476.439 480.213 468.371 480.343 438.996 478.711C429.304 478.173 417.278 477.506 403.02 477.486C397.544 476.841 388.278 477.868 382.096 489.888C378.955 495.991 377.267 503.661 375.779 510.427C375.031 513.827 373.98 518.604 372.995 521.248H255.645C256.056 520.212 256.48 519.144 256.915 518.049C270.42 484.044 278.974 459.102 265.954 447.847C238.358 423.979 220.759 391.66 215.713 355.998H221.293C231.761 355.998 240.276 347.481 240.276 337.013V314.164V282.173C240.832 276.15 242.395 272.478 249.328 268.228C271.52 254.633 285.443 231.761 287.448 206.168C310.458 192.494 336.704 185.281 363.67 185.281C408.34 185.281 460.467 212.908 484.922 249.544C495.403 265.245 505.527 289.672 494.232 316.868C490.554 325.725 496.008 338.008 505.21 357.313C508.19 363.562 512.502 372.609 513.644 376.835C511.707 378.683 507.543 381.542 504.878 383.372Z" fill="#0767F8"/>
<path d="M253.435 186.503C250.666 176.242 243.784 168.024 233.531 162.734C228.929 160.363 223.275 162.166 220.901 166.77C218.528 171.372 220.333 177.026 224.936 179.399C230.533 182.286 233.935 186.209 235.331 191.386C237.543 199.584 234.198 208.453 232.73 210.757C229.947 215.124 231.23 220.919 235.596 223.703C237.158 224.699 238.902 225.173 240.626 225.173C243.723 225.173 246.753 223.642 248.54 220.837C252.539 214.566 257.142 200.245 253.435 186.503Z" fill="#0767F8"/>
<path d="M207.448 60C202.271 60 198.074 64.199 198.074 69.375V96.1011C198.074 101.277 202.271 105.476 207.448 105.476C212.625 105.476 216.823 101.277 216.823 96.1011V69.375C216.823 64.199 212.625 60 207.448 60Z" fill="#0767F8"/>
<path d="M103.428 190.748H76.7015C71.5237 190.748 67.3265 194.947 67.3265 200.123C67.3265 205.301 71.5237 209.498 76.7015 209.498H103.429C108.605 209.498 112.803 205.301 112.803 200.123C112.803 194.947 108.604 190.748 103.428 190.748Z" fill="#0767F8"/>
<path d="M163.553 105.34L150.194 82.2046C147.604 77.7205 141.87 76.1859 137.387 78.7734C132.903 81.3627 131.367 87.0955 133.956 91.5796L147.316 114.715C149.053 117.724 152.203 119.404 155.443 119.404C157.034 119.404 158.646 118.999 160.122 118.146C164.606 115.557 166.142 109.824 163.553 105.34Z" fill="#0767F8"/>
<path d="M122.042 139.992L98.9033 126.633C94.4202 124.045 88.6855 125.582 86.0971 130.064C83.5077 134.548 85.0443 140.281 89.5283 142.87L112.667 156.229C114.142 157.082 115.755 157.487 117.345 157.487C120.585 157.487 123.736 155.807 125.473 152.798C128.062 148.316 126.526 142.581 122.042 139.992Z" fill="#0767F8"/>
<path d="M328.804 130.063C326.213 125.579 320.481 124.042 315.997 126.632L292.859 139.991C288.375 142.58 286.838 148.315 289.428 152.797C291.164 155.806 294.315 157.486 297.555 157.486C299.145 157.486 300.757 157.081 302.234 156.228L325.372 142.869C329.856 140.28 331.393 134.547 328.804 130.063Z" fill="#0767F8"/>
<path d="M125.478 247.45C122.89 242.966 117.158 241.431 112.673 244.016L89.5293 257.376C85.0452 259.963 83.5077 265.698 86.0961 270.182C87.8324 273.19 90.9843 274.871 94.2242 274.871C95.8142 274.871 97.4258 274.466 98.9023 273.615L122.045 260.256C126.529 257.668 128.067 251.934 125.478 247.45Z" fill="#0767F8"/>
<path d="M158.193 285.437C153.711 282.849 147.977 284.386 145.387 288.868L133.955 308.671C131.367 313.155 132.903 318.89 137.388 321.477C138.864 322.33 140.476 322.735 142.066 322.735C145.306 322.735 148.457 321.054 150.194 318.046L161.626 298.243C164.215 293.759 162.678 288.026 158.193 285.437Z" fill="#0767F8"/>
<path d="M277.513 78.7734C273.028 76.184 267.296 77.7206 264.707 82.2046L251.348 105.34C248.758 109.824 250.294 115.558 254.778 118.146C256.255 118.999 257.867 119.404 259.457 119.404C262.697 119.404 265.848 117.724 267.585 114.715L280.944 91.5796C283.534 87.0955 281.997 81.3627 277.513 78.7734Z" fill="#0767F8"/>
</g>
<defs>
<clipPath id="clip0">
<rect x="60" y="60" width="480" height="480" fill="white"/>
</clipPath>
</defs>
</svg>
